<svg xmlns="http://www.w3.org/2000/svg" xmlns:xlink="http://www.w3.org/1999/xlink" width="2000" zoomAndPan="magnify" viewBox="0 0 1500 374.999991" height="500" preserveAspectRatio="xMidYMid meet" version="1.2"><defs><clipPath id="37915ce67d"><path d="M 132.421875 56.640625 L 239.902344 56.640625 L 239.902344 164.539062 L 132.421875 164.539062 Z M 132.421875 56.640625 "/></clipPath><clipPath id="e4ed6d062e"><path d="M 186.164062 56.640625 C 156.484375 56.640625 132.421875 80.726562 132.421875 110.433594 C 132.421875 140.144531 156.484375 164.230469 186.164062 164.230469 C 215.84375 164.230469 239.902344 140.144531 239.902344 110.433594 C 239.902344 80.726562 215.84375 56.640625 186.164062 56.640625 Z M 186.164062 56.640625 "/></clipPath><clipPath id="64ec1bff44"><path d="M 11.773438 178.328125 L 119.367188 178.328125 L 119.367188 311 L 11.773438 311 Z M 11.773438 178.328125 "/></clipPath><clipPath id="d93883ebcb"><path d="M 47.65625 307.640625 C 53.171875 309.515625 59.445312 310.75 65.597656 310.75 C 71.753906 310.75 77.675781 309.691406 83.132812 307.816406 C 83.25 307.757812 83.367188 307.757812 83.480469 307.699219 C 103.980469 300.195312 119.074219 280.382812 119.367188 257.230469 L 119.367188 180.578125 C 119.367188 179.335938 118.359375 178.328125 117.117188 178.328125 L 14.023438 178.328125 C 12.78125 178.328125 11.773438 179.335938 11.773438 180.578125 L 11.773438 257.171875 C 12.066406 280.5 26.929688 300.3125 47.65625 307.640625 Z M 47.65625 307.640625 "/></clipPath><clipPath id="c2d444f91a"><path d="M 11.773438 56.640625 L 119.367188 56.640625 L 119.367188 164.230469 L 11.773438 164.230469 Z M 11.773438 56.640625 "/></clipPath><clipPath id="e7313161b3"><path d="M 14.023438 56.640625 L 117.117188 56.640625 C 117.710938 56.640625 118.285156 56.875 118.707031 57.296875 C 119.128906 57.71875 119.367188 58.292969 119.367188 58.890625 L 119.367188 161.980469 C 119.367188 162.578125 119.128906 163.148438 118.707031 163.570312 C 118.285156 163.992188 117.710938 164.230469 117.117188 164.230469 L 14.023438 164.230469 C 13.425781 164.230469 12.855469 163.992188 12.433594 163.570312 C 12.011719 163.148438 11.773438 162.578125 11.773438 161.980469 L 11.773438 58.890625 C 11.773438 58.292969 12.011719 57.71875 12.433594 57.296875 C 12.855469 56.875 13.425781 56.640625 14.023438 56.640625 Z M 14.023438 56.640625 "/></clipPath><clipPath id="2dee977cd6"><path d="M 132.421875 178.75 L 239.902344 178.75 L 239.902344 310.160156 L 132.421875 310.160156 Z M 132.421875 178.75 "/></clipPath><clipPath id="763f6ad90a"><path d="M 188.078125 179.507812 L 237.988281 210.253906 C 239.179688 210.988281 239.902344 212.285156 239.902344 213.683594 L 239.902344 275.394531 C 239.902344 276.792969 239.179688 278.089844 237.988281 278.824219 L 188.078125 309.566406 C 186.902344 310.292969 185.421875 310.292969 184.246094 309.566406 L 134.339844 278.824219 C 133.148438 278.089844 132.421875 276.792969 132.421875 275.394531 L 132.421875 213.683594 C 132.421875 212.285156 133.148438 210.988281 134.339844 210.253906 L 184.246094 179.507812 C 185.421875 178.785156 186.902344 178.785156 188.078125 179.507812 Z M 188.078125 179.507812 "/></clipPath></defs><g id="27158ec3a6"><g clip-rule="nonzero" clip-path="url(#37915ce67d)"><g clip-rule="nonzero" clip-path="url(#e4ed6d062e)"><path style=" stroke:none;fill-rule:nonzero;fill:#ff3131;fill-opacity:1;" d="M 132.421875 56.640625 L 239.902344 56.640625 L 239.902344 164.121094 L 132.421875 164.121094 Z M 132.421875 56.640625 "/></g></g><g clip-rule="nonzero" clip-path="url(#64ec1bff44)"><g clip-rule="nonzero" clip-path="url(#d93883ebcb)"><path style=" stroke:none;fill-rule:nonzero;fill:#023047;fill-opacity:1;" d="M 11.773438 178.328125 L 119.367188 178.328125 L 119.367188 310.714844 L 11.773438 310.714844 Z M 11.773438 178.328125 "/></g></g><g clip-rule="nonzero" clip-path="url(#c2d444f91a)"><g clip-rule="nonzero" clip-path="url(#e7313161b3)"><path style=" stroke:none;fill-rule:nonzero;fill:#ff9900;fill-opacity:1;" d="M 11.773438 56.640625 L 119.367188 56.640625 L 119.367188 164.230469 L 11.773438 164.230469 Z M 11.773438 56.640625 "/></g></g><g clip-rule="nonzero" clip-path="url(#2dee977cd6)"><g clip-rule="nonzero" clip-path="url(#763f6ad90a)"><path style=" stroke:none;fill-rule:nonzero;fill:#cde6f4;fill-opacity:1;" d="M 132.421875 178.328125 L 239.902344 178.328125 L 239.902344 310.578125 L 132.421875 310.578125 Z M 132.421875 178.328125 "/></g></g><g style="fill:#ffffff;fill-opacity:1;"><g transform="translate(272.328218, 309.20086)"><path style="stroke:none" d="M 133.859375 -197.71875 L 133.859375 -151.859375 L 70.40625 -151.859375 L 70.40625 -102.328125 C 70.40625 -85.140625 74.90625 -71.085938 83.90625 -60.171875 C 92.914062 -49.253906 106.703125 -43.796875 125.265625 -43.796875 C 129.359375 -43.796875 132.769531 -44.066406 135.5 -44.609375 C 138.226562 -45.160156 140.953125 -45.570312 143.671875 -45.84375 L 143.671875 0 C 140.128906 0.269531 137.195312 0.675781 134.875 1.21875 C 132.5625 1.769531 128.8125 2.046875 123.625 2.046875 C 102.613281 2.046875 84.460938 -2.585938 69.171875 -11.859375 C 53.890625 -21.140625 42.085938 -33.691406 33.765625 -49.515625 C 25.441406 -65.347656 21.28125 -82.953125 21.28125 -102.328125 L 21.28125 -253.796875 L 70.40625 -253.796875 L 70.40625 -197.71875 Z M 133.859375 -197.71875 "/></g></g><g style="fill:#ffffff;fill-opacity:1;"><g transform="translate(431.129885, 309.20086)"><path style="stroke:none" d="M 66.3125 -128.53125 C 73.675781 -125.800781 82 -123.550781 91.28125 -121.78125 C 100.5625 -120.007812 109.296875 -119.125 117.484375 -119.125 C 128.941406 -119.125 137.945312 -120.828125 144.5 -124.234375 C 151.050781 -127.648438 154.328125 -132.628906 154.328125 -139.171875 C 154.328125 -145.722656 151.117188 -150.703125 144.703125 -154.109375 C 138.285156 -157.523438 129.617188 -159.234375 118.703125 -159.234375 C 104.515625 -159.234375 93.191406 -156.503906 84.734375 -151.046875 C 76.273438 -145.585938 70.132812 -138.082031 66.3125 -128.53125 Z M 189.53125 -52.8125 L 189.53125 -6.546875 C 179.425781 -3.816406 168.097656 -1.632812 155.546875 0 C 142.992188 1.632812 131.941406 2.453125 122.390625 2.453125 C 98.109375 2.453125 77.78125 -2.25 61.40625 -11.65625 C 45.03125 -21.070312 32.816406 -33.691406 24.765625 -49.515625 C 16.710938 -65.347656 12.6875 -82.679688 12.6875 -101.515625 C 12.6875 -121.160156 16.78125 -138.894531 24.96875 -154.71875 C 33.15625 -170.550781 45.023438 -183.175781 60.578125 -192.59375 C 76.140625 -202.007812 94.972656 -206.71875 117.078125 -206.71875 C 133.992188 -206.71875 149 -203.851562 162.09375 -198.125 C 175.195312 -192.394531 185.429688 -184.476562 192.796875 -174.375 C 200.171875 -164.28125 203.859375 -152.546875 203.859375 -139.171875 C 203.859375 -125.804688 200.171875 -114.070312 192.796875 -103.96875 C 185.429688 -93.875 175.265625 -85.960938 162.296875 -80.234375 C 149.335938 -74.503906 134.265625 -71.640625 117.078125 -71.640625 C 98.242188 -71.640625 80.367188 -75.734375 63.453125 -83.921875 C 65.898438 -72.179688 71.832031 -62.765625 81.25 -55.671875 C 90.664062 -48.578125 105.472656 -45.03125 125.671875 -45.03125 C 131.671875 -45.03125 138.628906 -45.367188 146.546875 -46.046875 C 154.460938 -46.734375 162.304688 -47.617188 170.078125 -48.703125 C 177.859375 -49.796875 184.34375 -51.164062 189.53125 -52.8125 Z M 189.53125 -52.8125 "/></g></g><g style="fill:#ffffff;fill-opacity:1;"><g transform="translate(648.868228, 309.20086)"><path style="stroke:none" d="M 343.84375 -110.515625 L 343.84375 0 L 294.734375 0 L 294.734375 -110.515625 C 294.734375 -125.253906 291.179688 -137.332031 284.078125 -146.75 C 276.984375 -156.164062 266.207031 -160.875 251.75 -160.875 C 237.28125 -160.875 226.5 -156.164062 219.40625 -146.75 C 212.3125 -137.332031 208.765625 -125.253906 208.765625 -110.515625 L 208.765625 0 L 159.640625 0 L 159.640625 -110.515625 C 159.640625 -125.253906 156.09375 -137.332031 149 -146.75 C 141.90625 -156.164062 131.125 -160.875 116.65625 -160.875 C 102.195312 -160.875 91.421875 -156.164062 84.328125 -146.75 C 77.234375 -137.332031 73.6875 -125.253906 73.6875 -110.515625 L 73.6875 0 L 24.5625 0 L 24.5625 -110.515625 C 24.5625 -128.253906 28.175781 -144.425781 35.40625 -159.03125 C 42.632812 -173.632812 53.140625 -185.234375 66.921875 -193.828125 C 80.703125 -202.421875 97.28125 -206.71875 116.65625 -206.71875 C 132.488281 -206.71875 146.066406 -202.960938 157.390625 -195.453125 C 168.710938 -187.953125 177.648438 -177.925781 184.203125 -165.375 C 190.753906 -177.925781 199.691406 -187.953125 211.015625 -195.453125 C 222.335938 -202.960938 235.914062 -206.71875 251.75 -206.71875 C 271.394531 -206.71875 288.039062 -202.421875 301.6875 -193.828125 C 315.332031 -185.234375 325.769531 -173.632812 333 -159.03125 C 340.226562 -144.425781 343.84375 -128.253906 343.84375 -110.515625 Z M 343.84375 -110.515625 "/></g></g><g style="fill:#ffffff;fill-opacity:1;"><g transform="translate(1013.948304, 309.20086)"><path style="stroke:none" d="M 117.078125 -43.796875 C 136.453125 -43.796875 150.503906 -49.523438 159.234375 -60.984375 C 167.960938 -72.453125 172.328125 -86.234375 172.328125 -102.328125 C 172.328125 -118.429688 167.960938 -132.210938 159.234375 -143.671875 C 150.503906 -155.140625 136.453125 -160.875 117.078125 -160.875 C 97.703125 -160.875 83.644531 -155.140625 74.90625 -143.671875 C 66.175781 -132.210938 61.8125 -118.429688 61.8125 -102.328125 C 61.8125 -86.234375 66.175781 -72.453125 74.90625 -60.984375 C 83.644531 -49.523438 97.703125 -43.796875 117.078125 -43.796875 Z M 117.078125 2.046875 C 95.242188 2.046875 76.476562 -2.660156 60.78125 -12.078125 C 45.09375 -21.492188 33.15625 -34.113281 24.96875 -49.9375 C 16.78125 -65.769531 12.6875 -83.234375 12.6875 -102.328125 C 12.6875 -121.710938 16.78125 -139.25 24.96875 -154.9375 C 33.15625 -170.625 45.09375 -183.175781 60.78125 -192.59375 C 76.476562 -202.007812 95.242188 -206.71875 117.078125 -206.71875 C 139.179688 -206.71875 158.007812 -202.007812 173.5625 -192.59375 C 189.113281 -183.175781 200.984375 -170.625 209.171875 -154.9375 C 217.359375 -139.25 221.453125 -121.710938 221.453125 -102.328125 C 221.453125 -83.234375 217.359375 -65.769531 209.171875 -49.9375 C 200.984375 -34.113281 189.113281 -21.492188 173.5625 -12.078125 C 158.007812 -2.660156 139.179688 2.046875 117.078125 2.046875 Z M 117.078125 2.046875 "/></g></g><g style="fill:#ffffff;fill-opacity:1;"><g transform="translate(1248.057945, 309.20086)"><path style="stroke:none" d="M 172.328125 -102.328125 C 171.515625 -120.347656 166.875 -134.609375 158.40625 -145.109375 C 149.945312 -155.617188 136.441406 -160.875 117.890625 -160.875 C 97.972656 -160.875 83.644531 -155.140625 74.90625 -143.671875 C 66.175781 -132.210938 61.8125 -118.429688 61.8125 -102.328125 C 61.8125 -91.691406 63.648438 -81.9375 67.328125 -73.0625 C 71.015625 -64.195312 77.019531 -57.101562 85.34375 -51.78125 C 93.664062 -46.457031 104.515625 -43.796875 117.890625 -43.796875 C 134.804688 -43.796875 148.109375 -48.570312 157.796875 -58.125 C 167.484375 -67.675781 172.328125 -82.410156 172.328125 -102.328125 Z M 237.828125 0 L 188.703125 0 C 186.523438 -5.457031 184.613281 -10.773438 182.96875 -15.953125 C 181.332031 -21.140625 179.832031 -26.328125 178.46875 -31.515625 C 171.644531 -21.421875 162.707031 -13.300781 151.65625 -7.15625 C 140.601562 -1.019531 127.4375 2.046875 112.15625 2.046875 C 92.78125 2.046875 75.585938 -2.585938 60.578125 -11.859375 C 45.566406 -21.140625 33.832031 -33.765625 25.375 -49.734375 C 16.914062 -65.703125 12.6875 -83.375 12.6875 -102.75 C 12.6875 -121.851562 16.847656 -139.25 25.171875 -154.9375 C 33.492188 -170.625 45.5 -183.175781 61.1875 -192.59375 C 76.882812 -202.007812 95.785156 -206.71875 117.890625 -206.71875 C 149.003906 -206.71875 173.769531 -197.300781 192.1875 -178.46875 C 210.601562 -159.644531 220.359375 -134.265625 221.453125 -102.328125 C 221.722656 -95.515625 221.992188 -86.648438 222.265625 -75.734375 C 222.546875 -64.816406 223.707031 -52.804688 225.75 -39.703125 C 227.800781 -26.609375 231.828125 -13.375 237.828125 0 Z M 237.828125 0 "/></g></g></g></svg>